<?xml version="1.0" encoding="UTF-8"?>
<!DOCTYPE svg PUBLIC "-//W3C//DTD SVG 1.1//EN" "http://www.w3.org/Graphics/SVG/1.1/DTD/svg11.dtd">
<svg version="1.1" xmlns="http://www.w3.org/2000/svg" xmlns:xlink="http://www.w3.org/1999/xlink" x="0" y="0" width="530" height="686" viewBox="0, 0, 530, 686">
  <defs>
    <linearGradient id="Gradient_1" gradientUnits="userSpaceOnUse" x1="-111.963" y1="484.389" x2="207.584" y2="-69.082">
      <stop offset="0" stop-color="#EC9663"/>
      <stop offset="1" stop-color="#EFA77C"/>
    </linearGradient>
    <clipPath id="Clip_1">
      <path d="M322.713,2.953 C335.16,3.468 346.189,9.744 355.044,18.222 C351.07,30.156 416.95,183.844 416.95,183.844 C371.612,196.004 336.212,220.356 336.212,220.356 C283.118,247.98 245.646,197.26 245.646,197.26 C225.748,262.914 251.61,288.752 251.61,288.752 C301.328,352.428 285.426,402.17 285.426,402.17 C402.79,282.812 525.522,395.742 525.522,395.742 L525.522,649.386 C414.116,717.008 269.51,658.784 231.704,632.928 C193.918,607.062 94.458,583.188 94.458,583.188 C-44.808,575.216 28.796,473.784 28.796,473.784 C22.83,258.92 189.938,113.702 189.938,113.702 C189.938,97.788 207.842,81.868 207.842,81.868 C213.802,52.032 247.628,20.204 247.628,20.204 C263.544,-5.658 277.46,8.274 277.46,8.274 C301.328,12.252 311.288,6.288 311.288,6.288 C317.396,3.315 313.686,4.722 322.713,2.953 z"/>
    </clipPath>
  </defs>
  <g id="Layer_1">
    <path d="M424.688,166.142 C424.688,166.142 458.918,162.622 445.882,186.278 C445.882,186.278 424.114,225.428 408.71,222.084 L344.39,204.676 L390.404,162.84 L424.688,166.142" fill="#EFA77C"/>
    <path d="M424.712,165.544 C428.066,165.258 431.386,165.208 434.778,165.324 C438.186,165.492 441.686,165.778 445.248,167.302 C447.012,168.066 448.816,169.28 450.16,171.12 C451.522,172.946 452.228,175.278 452.38,177.454 C452.654,181.88 451.328,185.658 449.838,189.094 C447.154,195.54 443.162,201.168 438.15,206.034 C433.076,210.856 427.596,215.146 422.084,219.366 C419.25,221.39 416.27,223.442 412.358,224.35 C411.382,224.552 410.352,224.716 409.282,224.674 C409.014,224.678 408.746,224.642 408.476,224.622 C408.296,224.594 408.31,224.638 407.968,224.55 L407.664,224.482 L406.442,224.216 L401.54,223.194 L381.902,219.186 C375.358,217.852 368.838,216.424 362.338,214.918 L342.888,210.228 L333.024,207.848 L340.524,200.422 C347.894,193.122 355.294,185.852 363.13,179.066 C367.036,175.658 370.99,172.302 375.052,169.068 C379.126,165.842 383.422,162.866 387.772,159.944 L389.658,158.676 L390.78,158.944 C396.418,160.288 402.044,161.75 407.7,162.91 C410.524,163.508 413.36,164.004 416.2,164.452 C419.03,164.892 421.87,165.238 424.712,165.544 z M424.63,166.736 C421.77,166.494 418.906,166.29 416.034,166.182 C413.16,166.08 410.282,166.026 407.394,166.072 C401.62,166.132 395.82,166.494 390.03,166.736 L393.038,165.736 C389.716,169.788 386.346,173.784 382.748,177.532 C379.142,181.268 375.428,184.886 371.664,188.45 C364.164,195.61 356.224,202.286 348.26,208.93 L345.892,199.126 L365.054,204.886 C371.426,206.864 377.776,208.918 384.1,211.068 L403.076,217.51 L407.826,219.1 L409.85,219.77 C410.436,219.94 411.084,220.032 411.758,220.01 C414.496,219.936 417.43,218.416 419.892,216.478 C424.95,212.52 428.152,206.508 431.138,200.748 C434.136,194.954 437.462,189.406 441.45,184.308 C443.188,181.964 444.68,179.468 445.28,177.184 C445.572,176.04 445.634,174.968 445.312,173.9 C444.996,172.834 444.232,171.752 443.142,170.816 C440.926,168.944 437.74,167.816 434.564,167.194 C431.358,166.576 428.004,166.474 424.746,166.736 L424.686,166.742 L424.63,166.736" fill="#1A1919"/>
    <g clip-path="url(#Clip_1)">
      <path d="M322.713,2.953 C335.161,3.467 346.188,9.745 355.044,18.222 C351.07,30.156 416.95,183.844 416.95,183.844 C371.612,196.004 336.212,220.356 336.212,220.356 C283.118,247.98 245.646,197.26 245.646,197.26 C225.748,262.914 251.61,288.752 251.61,288.752 C301.328,352.428 285.426,402.17 285.426,402.17 C402.79,282.812 525.522,395.742 525.522,395.742 L525.522,649.386 C414.116,717.008 269.51,658.784 231.704,632.928 C193.918,607.062 94.458,583.188 94.458,583.188 C-44.808,575.216 28.796,473.784 28.796,473.784 C22.83,258.92 189.938,113.702 189.938,113.702 C189.938,97.788 207.842,81.868 207.842,81.868 C213.802,52.032 247.628,20.204 247.628,20.204 C263.544,-5.658 277.46,8.274 277.46,8.274 C301.328,12.252 311.288,6.288 311.288,6.288 C317.396,3.315 313.686,4.722 322.713,2.953 z" fill="url(#Gradient_1)"/>
    </g>
    <path d="M525.02,396.294 C516.486,389.238 507.13,383.144 497.556,377.612 C487.958,372.09 477.964,367.3 467.688,363.332 C447.176,355.332 425.318,350.896 403.574,351.284 C381.822,351.628 360.43,357.246 341.132,366.988 C321.772,376.714 304.632,390.522 289.486,406.162 C287.302,408.414 283.706,408.472 281.454,406.29 C279.9,404.786 279.39,402.61 279.938,400.666 L280.004,400.438 C280.08,400.172 280.248,399.512 280.36,399.008 L280.706,397.338 C280.92,396.204 281.102,395.044 281.256,393.878 C281.568,391.538 281.768,389.16 281.878,386.768 C282.09,381.986 281.936,377.154 281.464,372.344 C280.52,362.718 278.318,353.184 275.144,343.966 C271.944,334.754 267.87,325.808 263.014,317.264 C258.166,308.712 252.578,300.548 246.458,292.774 L246.99,293.376 C246.544,292.92 246.416,292.762 246.166,292.482 L245.55,291.75 C245.16,291.27 244.794,290.796 244.444,290.322 C243.744,289.372 243.104,288.42 242.498,287.46 C241.292,285.536 240.228,283.576 239.276,281.582 C237.37,277.598 235.904,273.49 234.754,269.334 C232.486,261.016 231.476,252.52 231.426,244.126 C231.336,227.304 234.58,210.958 239.314,195.34 C240.372,191.842 244.068,189.868 247.566,190.926 C248.964,191.35 250.12,192.196 250.936,193.282 L250.968,193.328 C251.384,193.88 252.074,194.726 252.676,195.428 L254.62,197.622 C255.942,199.076 257.326,200.494 258.756,201.866 C261.616,204.606 264.656,207.164 267.844,209.484 C274.22,214.124 281.216,217.818 288.59,220.062 C295.958,222.288 303.678,223.162 311.35,222.322 C319.022,221.52 326.584,219.092 333.706,215.54 L333.136,215.884 C339.702,211.648 346.172,208.03 352.876,204.498 C359.552,201.006 366.344,197.75 373.244,194.742 C387.044,188.732 401.294,183.7 415.924,180.022 L413.312,185.402 C407.728,171.696 402.246,157.978 396.818,144.224 L380.612,102.942 L372.71,82.216 C370.068,75.31 367.466,68.384 364.94,61.426 C362.416,54.466 359.954,47.48 357.676,40.408 C356.542,36.868 355.448,33.308 354.482,29.678 C354.006,27.86 353.548,26.032 353.17,24.136 C352.984,23.186 352.818,22.222 352.708,21.2 C352.656,20.686 352.618,20.158 352.62,19.578 C352.63,18.994 352.63,18.388 352.9,17.508 L353.448,19.818 C348.684,15.338 343.026,11.346 337.064,8.592 C331.108,5.848 324.49,4.406 318.42,5.89 C316.914,6.264 315.448,6.786 314.058,7.484 C313.714,7.666 313.364,7.834 313.03,8.036 L312.522,8.328 C312.172,8.53 311.994,8.612 311.746,8.734 C310.832,9.166 309.956,9.506 309.062,9.81 C305.51,10.998 301.918,11.588 298.328,11.91 C291.146,12.522 284.01,11.976 277.028,10.878 C276.516,10.798 276.066,10.572 275.71,10.246 L275.592,10.14 C274.87,9.482 273.612,8.67 272.486,8.2 C271.318,7.692 270.088,7.38 268.852,7.282 C266.376,7.08 263.866,7.778 261.556,9.13 C259.242,10.482 257.154,12.432 255.28,14.614 C253.402,16.802 251.736,19.244 250.208,21.792 C250.092,21.986 249.956,22.16 249.802,22.314 L249.706,22.41 C245.458,26.626 241.328,31.234 237.444,35.906 C233.556,40.602 229.87,45.458 226.49,50.486 C223.112,55.512 220.028,60.712 217.46,66.09 C214.902,71.462 212.85,77.038 211.802,82.66 C211.646,83.496 211.232,84.22 210.656,84.762 L210.526,84.886 C208.524,86.78 206.44,89.076 204.604,91.338 C202.746,93.632 201.028,96.022 199.54,98.494 C196.574,103.4 194.454,108.788 194.554,113.702 C194.582,115.008 194.036,116.192 193.15,117.016 L192.966,117.186 C186.978,122.708 181.06,128.79 175.37,134.88 C169.664,141.004 164.118,147.288 158.718,153.692 C147.932,166.514 137.644,179.756 128.012,193.454 C108.696,220.8 91.726,249.774 77.73,280.082 C63.758,310.388 52.872,342.09 45.872,374.606 C38.808,407.112 35.87,440.402 36.738,473.564 C36.786,475.358 36.238,477.028 35.274,478.386 L35.226,478.452 C34.438,479.564 33.452,481.076 32.598,482.45 C31.72,483.864 30.866,485.304 30.042,486.764 C28.394,489.682 26.858,492.67 25.46,495.7 C22.668,501.758 20.394,508.01 18.962,514.294 C16.016,526.852 16.878,539.572 23.546,549.102 C30.106,558.772 41.93,565.128 54.57,569.034 C67.312,572.982 81.066,574.816 94.884,575.704 L95.024,575.712 C95.418,575.738 95.836,575.808 96.208,575.898 C114.834,580.606 133.06,585.93 151.28,591.744 C169.452,597.624 187.534,603.922 205.2,611.754 C214.02,615.706 222.762,619.966 231.204,625.298 C233.302,626.61 235.476,628.184 237.202,629.328 C239.07,630.57 241.006,631.768 242.968,632.938 C246.904,635.272 250.964,637.478 255.092,639.576 C271.652,647.92 289.064,654.898 306.86,660.608 C342.46,671.956 379.892,678.366 417.358,677.4 C436.07,676.974 454.784,674.602 472.956,669.88 C491.114,665.14 508.73,658.108 525.134,648.748 C525.492,648.542 525.948,648.666 526.152,649.024 C526.352,649.37 526.24,649.81 525.908,650.024 C517.902,655.152 509.538,659.76 500.87,663.754 C492.2,667.734 483.23,671.088 474.086,673.88 C455.788,679.46 436.772,682.688 417.644,683.922 C379.318,686.2 340.812,680.726 303.946,670.226 C285.502,664.906 267.382,658.378 249.942,649.986 C245.58,647.886 241.26,645.666 236.994,643.26 C234.862,642.052 232.742,640.802 230.636,639.468 C228.386,638.036 226.698,636.862 224.75,635.71 C217.052,631.104 208.626,627.22 200.076,623.648 C182.904,616.558 165.084,610.578 147.106,605.15 C129.14,599.738 110.864,594.85 92.706,590.478 L94.028,590.672 C79.414,589.86 64.65,588.112 50.062,583.764 C42.786,581.574 35.546,578.684 28.694,574.588 C21.872,570.51 15.402,565.078 10.548,558.116 C5.668,551.196 2.654,542.886 1.764,534.666 C0.826,526.42 1.668,518.34 3.41,510.734 C5.166,503.11 7.828,495.898 11.008,489.014 C12.604,485.574 14.336,482.214 16.2,478.926 C17.13,477.284 18.096,475.658 19.102,474.044 C20.138,472.394 21.09,470.912 22.364,469.118 L20.854,474.004 C19.824,439.498 23.632,404.924 31.246,371.36 C38.89,337.778 50.516,305.212 65.242,274.234 C79.96,243.236 97.848,213.84 118.176,186.34 C128.38,172.616 139.13,159.304 150.556,146.592 C156.268,140.234 162.122,134.004 168.144,127.932 C174.204,121.848 180.274,115.966 186.91,110.218 L185.322,113.702 C185.378,109.892 186.254,106.302 187.502,103.024 C188.758,99.736 190.392,96.724 192.212,93.904 C194.034,91.084 196.054,88.458 198.202,85.968 C200.384,83.46 202.566,81.18 205.158,78.85 L203.882,81.078 C205.29,74.542 207.756,68.462 210.67,62.736 C213.6,57.008 217.008,51.618 220.678,46.458 C224.356,41.302 228.306,36.384 232.448,31.648 C236.616,26.908 240.884,22.384 245.55,17.996 L245.046,18.614 C246.786,15.888 248.696,13.232 250.928,10.768 C253.158,8.31 255.716,6.018 258.804,4.292 C261.854,2.552 265.598,1.504 269.33,1.88 C271.186,2.056 272.996,2.554 274.658,3.308 C276.36,4.106 277.776,4.954 279.328,6.406 L277.896,5.67 C284.548,6.822 291.308,7.428 297.934,6.964 C301.232,6.722 304.522,6.216 307.55,5.25 C308.3,5.006 309.044,4.734 309.692,4.428 L310.068,4.238 L310.688,3.886 C311.096,3.644 311.526,3.438 311.95,3.22 C313.654,2.374 315.468,1.736 317.322,1.288 C321.044,0.414 324.904,0.404 328.562,1.04 C332.228,1.67 335.718,2.868 339,4.392 C345.574,7.5 351.36,11.612 356.642,16.624 L357.54,17.474 C357.886,17.804 357.9,18.354 357.57,18.702 C357.462,18.814 357.328,18.894 357.19,18.936 C357.18,18.938 357.124,19.266 357.13,19.604 C357.128,19.948 357.15,20.34 357.192,20.746 C357.274,21.558 357.414,22.418 357.578,23.28 C357.906,25.01 358.344,26.764 358.824,28.512 C359.782,32.012 360.88,35.508 362.026,38.994 C364.322,45.962 366.818,52.89 369.38,59.796 C371.942,66.704 374.582,73.588 377.264,80.456 L385.564,100.968 C391.184,114.612 396.836,128.246 402.75,141.768 C408.628,155.304 414.568,168.828 420.586,182.284 C421.466,184.252 420.584,186.562 418.618,187.442 C418.454,187.514 418.288,187.576 418.12,187.624 L417.974,187.666 C403.962,191.69 390.328,197.04 377.14,203.302 C370.546,206.436 364.064,209.808 357.716,213.398 C351.412,216.974 345.056,220.83 339.29,224.826 C339.136,224.932 338.98,225.028 338.822,225.114 L338.716,225.17 C330.782,229.458 322.01,232.644 312.788,233.916 C303.588,235.208 294.016,234.566 285.09,231.966 C276.138,229.414 267.83,225.176 260.38,219.956 C256.648,217.342 253.118,214.476 249.788,211.396 C248.122,209.856 246.506,208.258 244.94,206.598 C244.154,205.77 243.394,204.912 242.636,204.036 C241.858,203.126 241.192,202.334 240.324,201.192 L251.98,199.18 C247.57,213.888 244.69,229.052 244.834,244.006 C244.932,251.46 245.692,258.86 247.564,265.864 C248.5,269.358 249.688,272.758 251.18,275.942 C251.924,277.534 252.744,279.07 253.632,280.512 C254.078,281.232 254.54,281.93 255.01,282.582 L255.716,283.51 L256.23,284.128 L256.762,284.728 C263.176,293.018 269.064,301.766 274.192,310.988 C279.306,320.21 283.718,329.892 286.98,340.012 C290.258,350.116 292.496,360.614 293.35,371.294 C293.776,376.632 293.858,382.014 293.518,387.406 C293.348,390.102 293.072,392.8 292.664,395.506 C292.46,396.858 292.22,398.212 291.938,399.578 L291.472,401.64 C291.288,402.376 291.144,402.952 290.848,403.904 L281.368,398.18 C297.452,382.044 316.028,368.024 336.828,358.164 C357.57,348.236 380.662,343.11 403.562,343.524 C426.504,343.804 448.974,349.572 469.638,358.61 C490.268,367.812 509.458,380.008 526.024,395.19 C526.326,395.468 526.348,395.94 526.068,396.244 C525.798,396.538 525.35,396.566 525.044,396.316 L525.02,396.294" fill="#1A1919"/>
    <path d="M428.014,116.372 C428.014,116.372 433.528,126.336 441.272,129.652 C441.272,129.652 462.288,139.6 441.272,166.142 C441.272,166.142 403.676,225.874 374.918,201.55 C374.918,201.55 351.69,186.058 355.006,178.31 L428.014,116.372" fill="#EFA77C"/>
    <path d="M428.536,116.08 C431.998,119.806 435.756,123.34 439.78,125.388 C440.274,125.648 440.776,125.864 441.27,126.06 L442.006,126.332 L442.372,126.444 L442.554,126.5 L442.6,126.516 L442.81,126.608 L442.992,126.686 C444.532,127.36 445.794,128.1 447.048,129.026 C449.528,130.836 451.698,133.262 453.208,136.172 C454.702,139.08 455.486,142.412 455.474,145.618 C455.512,148.838 454.88,151.914 453.928,154.742 C451.98,160.4 448.926,165.218 445.434,169.438 L445.764,168.97 C441.532,175.172 436.61,180.384 431.264,185.36 C425.916,190.282 420.326,194.868 414.504,199.134 C408.656,203.326 402.444,207.31 395.004,209.192 C391.308,210.122 387.262,210.366 383.28,209.592 C379.296,208.828 375.508,207.036 372.252,204.702 L372.628,204.984 C370.11,203.602 367.824,202.162 365.51,200.586 C363.2,199.03 360.956,197.344 358.786,195.46 C356.614,193.566 354.5,191.536 352.496,188.946 C351.506,187.62 350.52,186.172 349.72,184.18 C349.332,183.18 348.988,182.02 348.868,180.626 C348.75,179.232 348.928,177.55 349.568,175.984 L350.034,174.854 L351.18,173.8 C357.064,168.404 362.992,163.058 369.116,157.942 C375.236,152.826 381.506,147.882 387.87,143.048 C391.048,140.632 394.27,138.262 397.514,135.92 C400.726,133.54 404.022,131.256 407.31,128.966 C413.924,124.43 420.612,119.98 427.628,115.916 L428.118,115.632 L428.536,116.08 z M427.828,117.484 C422.84,123.492 417.566,129.17 412.212,134.746 C409.418,137.618 406.63,140.496 403.758,143.278 C400.918,146.098 398.054,148.888 395.15,151.632 C389.346,157.122 383.448,162.502 377.4,167.708 C371.356,172.916 365.116,177.894 358.832,182.82 L360.442,180.638 C360.57,180.302 360.554,179.972 360.516,179.908 C360.486,179.844 360.47,179.988 360.538,180.238 C360.662,180.752 361.072,181.6 361.616,182.45 C362.726,184.19 364.328,186.022 366.02,187.79 C367.728,189.56 369.566,191.312 371.44,193.056 C373.314,194.772 375.318,196.502 377.21,198.114 L377.774,198.596 L377.584,198.398 C379.694,200.614 382.148,202.428 384.966,203.546 C387.774,204.704 390.956,205.05 394.18,204.704 C400.67,203.94 406.93,200.484 412.194,196.144 C417.512,191.768 421.904,186.31 425.804,180.616 C429.676,174.936 433.324,168.92 436.78,163.314 L436.854,163.192 L437.11,162.846 C439.936,159.028 442.57,155.162 444.19,151.186 C445.792,147.208 446.358,143.322 445.13,139.8 C444.546,138.03 443.488,136.318 442.088,134.792 C441.396,134.054 440.562,133.294 439.838,132.764 C439.826,132.752 439.792,132.73 439.804,132.734 C439.804,132.732 439.816,132.736 439.804,132.73 C439.682,132.672 439.96,132.798 439.926,132.782 L439.91,132.774 L439.846,132.738 L439.59,132.594 L439.082,132.304 C438.76,132.098 438.428,131.902 438.12,131.678 C437.504,131.242 436.91,130.79 436.362,130.308 C432.258,126.608 429.6,122.21 427.828,117.484" fill="#1A1919"/>
    <path d="M401.462,73.25 C401.462,73.25 412.52,90.938 431.32,97.566 C431.32,97.566 450.13,117.496 405.894,149.564 C405.894,149.564 359.434,194.894 341.744,173.898 C341.744,173.898 319.618,149.564 332.89,130.762 L401.462,73.25" fill="#EFA77C"/>
    <path d="M401.968,72.932 C406.494,77.606 411.408,81.786 416.554,85.31 C419.142,87.056 421.816,88.6 424.52,89.968 C427.236,91.32 430.05,92.356 432.862,93.196 L433.842,93.49 L434.692,94.386 C435.244,94.97 435.426,95.208 435.744,95.604 C436.026,95.962 436.284,96.318 436.53,96.678 C437.022,97.396 437.45,98.134 437.834,98.892 C438.604,100.404 439.202,101.986 439.632,103.606 C440.502,106.85 440.626,110.23 440.25,113.442 C439.412,119.898 436.702,125.602 433.274,130.364 C429.852,135.172 425.654,139.098 421.296,142.6 C416.882,146.054 412.246,149.05 407.568,151.872 L407.886,151.606 C399.646,158.094 391.548,164.256 383.046,170.194 C378.782,173.128 374.388,175.928 369.66,178.366 C364.926,180.752 359.804,182.916 353.772,183.276 C350.778,183.436 347.508,183.012 344.438,181.67 C342.92,180.986 341.478,180.09 340.19,179.04 C339.542,178.518 338.936,177.954 338.366,177.37 L337.648,176.644 L336.92,175.87 C333.244,171.728 330.082,167.264 327.518,162.23 C324.988,157.22 322.944,151.62 322.604,145.37 C322.432,142.266 322.706,139.02 323.552,135.868 C324.372,132.708 325.844,129.71 327.666,127.074 L328.108,126.432 L328.782,125.862 C334.464,121.032 340.228,116.298 346.116,111.712 C349.034,109.388 352.016,107.14 354.982,104.878 C357.956,102.618 360.904,100.33 363.934,98.14 C369.938,93.692 376.016,89.334 382.188,85.084 C388.356,80.832 394.618,76.694 401.08,72.792 L401.554,72.504 L401.968,72.932 z M401.314,74.276 C396.506,79.748 391.532,85.022 386.452,90.17 C381.196,95.508 375.844,100.734 370.42,105.87 C367.736,108.474 364.968,110.978 362.226,113.514 C359.48,116.042 356.748,118.588 353.954,121.056 C348.41,126.054 342.746,130.908 337.002,135.662 L338.116,134.452 C335.93,137.516 334.726,140.976 334.732,144.976 C334.734,148.948 335.81,153.286 337.606,157.476 C339.406,161.656 341.822,165.816 344.574,169.584 L345.072,170.276 L345.616,170.988 C345.884,171.358 346.17,171.71 346.474,172.034 C347.08,172.692 347.754,173.254 348.504,173.734 C349.976,174.726 351.828,175.368 353.924,175.61 C358.136,176.102 362.982,175.132 367.582,173.542 C372.214,171.928 376.698,169.634 380.976,167.016 C389.518,161.76 397.324,155.026 403.902,147.522 L403.87,147.558 L404.22,147.254 C408.204,143.79 411.942,140.092 415.352,136.242 C418.796,132.432 421.892,128.434 424.514,124.398 C427.076,120.344 429.184,116.164 429.868,111.978 C430.248,109.896 430.24,107.834 429.896,105.862 C429.724,104.878 429.454,103.912 429.086,103.002 C428.9,102.548 428.694,102.106 428.48,101.69 L428.148,101.098 C428.072,100.952 427.848,100.658 427.95,100.748 L429.78,101.936 C426.442,100.596 423.336,98.82 420.446,96.84 C417.538,94.88 414.9,92.602 412.49,90.16 C410.046,87.752 407.91,85.084 405.944,82.342 C404.174,79.776 402.596,77.114 401.314,74.276" fill="#1A1919"/>
    <path d="M353.258,15.28 C353.258,15.28 366.076,29.016 392.62,36.75 C392.62,36.75 436.854,59.97 393.72,90.938 C393.72,90.938 341.744,157.286 322.938,128.542 L309.672,113.056 C309.672,113.056 297.494,83.194 341.744,72.138 L361.66,65.732 L355.78,28.38 L353.258,15.28" fill="#EFA77C"/>
    <path d="M353.694,14.872 C356.756,17.004 360.03,18.852 363.288,20.588 C366.574,22.29 369.898,23.862 373.278,25.268 C376.68,26.626 380.052,27.988 383.532,29.066 C386.994,30.172 390.478,31.166 393.992,32.04 L394.368,32.132 L394.9,32.406 C397.99,33.988 400.464,35.624 403.036,37.586 C405.56,39.514 407.948,41.69 410.108,44.188 C412.276,46.674 414.214,49.508 415.632,52.742 C417.042,55.958 417.898,59.61 417.82,63.274 C417.786,66.938 416.846,70.516 415.37,73.624 C413.88,76.742 411.952,79.46 409.81,81.844 C405.488,86.592 400.496,90.15 395.414,93.296 L396.006,92.728 C390.768,98.398 385.454,103.74 380.104,109.142 C377.428,111.83 374.732,114.504 371.986,117.136 C369.204,119.728 366.406,122.318 363.496,124.81 C360.552,127.26 357.584,129.728 354.348,131.928 C351.13,134.148 347.716,136.224 343.836,137.746 C339.994,139.232 335.474,140.28 330.62,139.272 C328.228,138.774 325.854,137.742 323.872,136.274 C321.88,134.82 320.244,133.04 318.902,131.182 L319.276,131.68 C316.906,129.234 314.636,126.704 312.322,124.212 L305.448,116.676 L304.888,116.066 L304.52,115.158 C304.208,114.388 304.088,114.018 303.906,113.478 C303.744,112.978 303.6,112.486 303.466,111.996 C303.204,111.014 302.988,110.032 302.814,109.044 C302.47,107.066 302.294,105.058 302.3,103.03 C302.3,98.976 303.112,94.834 304.706,91.002 C306.294,87.166 308.654,83.694 311.41,80.778 C314.184,77.868 317.346,75.51 320.608,73.562 C323.898,71.646 327.288,70.094 330.724,68.864 C332.444,68.248 334.172,67.706 335.902,67.21 L338.498,66.514 L339.8,66.2 L340.126,66.126 L340.208,66.108 L340.228,66.102 C340.32,66.076 339.488,66.314 339.85,66.21 L339.888,66.2 L340.04,66.158 L340.642,65.986 C347.072,64.106 353.566,62.436 360.04,60.694 L356.432,66.556 L355.154,53.81 L354.044,41.04 C353.72,36.816 353.404,32.422 353.164,28.322 C352.918,24.028 352.686,19.732 352.672,15.394 L352.668,14.158 L353.694,14.872 z M354.968,18.324 C356.08,21.33 357.174,24.328 358.188,27.354 C359.346,31.662 360.3,35.7 361.32,39.894 L364.188,52.388 L367.79,69.078 L363.282,70.772 C357.006,73.13 350.756,75.558 344.438,77.78 L343.846,77.992 L343.698,78.046 L343.158,78.204 L342.876,78.284 L341.748,78.606 L339.514,79.278 C338.04,79.75 336.584,80.252 335.168,80.81 C332.334,81.912 329.604,83.14 327.12,84.622 C322.128,87.524 318.048,91.266 315.88,95.88 C314.79,98.186 314.17,100.71 313.994,103.348 C313.91,104.666 313.948,106.01 314.1,107.344 C314.176,108.01 314.282,108.672 314.414,109.318 L314.632,110.258 C314.694,110.518 314.832,110.946 314.824,110.956 L313.896,109.438 L320.288,117.388 C322.394,120.058 324.546,122.688 326.6,125.406 L326.964,125.892 L326.972,125.904 C328.442,128.488 330.284,130.322 332.754,131.25 C335.232,132.204 338.488,132.102 341.764,131.304 C348.388,129.654 354.938,125.842 360.858,121.488 C363.842,119.296 366.724,116.938 369.464,114.416 C372.242,111.93 374.91,109.314 377.466,106.592 C382.564,101.156 387.262,95.232 391.434,89.146 L391.544,88.986 L392.028,88.578 C396.316,84.956 400.242,80.94 403.108,76.58 C406.03,72.254 407.638,67.614 407.392,63.38 C407.202,59.132 405.144,54.938 401.996,51.058 C400.41,49.14 398.564,47.328 396.578,45.63 C395.58,44.788 394.542,43.976 393.474,43.21 C392.45,42.454 391.248,41.646 390.338,41.096 L391.246,41.462 C387.52,40.22 383.86,38.766 380.322,37.06 C376.798,35.328 373.316,33.524 370.052,31.35 C366.77,29.22 363.62,26.894 360.712,24.292 C358.64,22.452 356.746,20.45 354.968,18.324" fill="#1A1919"/>
    <path d="M352.368,18.396 C352.368,18.396 360.634,40.02 366.17,43.334 C366.17,43.334 383.984,66.49 356.114,78.772 C356.114,78.772 331.782,95.364 326.258,114.166 C326.258,114.166 324.018,147.884 294.16,133.504 C294.16,133.504 295.65,136.564 285.704,91.202 C285.704,91.202 288.398,93.184 285.074,77.718" fill="#EFA77C"/>
    <path d="M352.924,18.182 C355.75,22.188 358.318,26.262 360.98,30.156 C362.3,32.1 363.63,34.016 364.99,35.766 C365.678,36.63 366.35,37.474 367.03,38.162 C367.666,38.83 368.462,39.45 368.546,39.366 C368.644,39.268 368.8,39.27 368.898,39.368 L368.916,39.384 L369.836,40.514 C370.664,41.53 371.202,42.268 371.804,43.174 C372.378,44.05 372.908,44.946 373.41,45.868 C374.416,47.706 375.25,49.666 375.894,51.746 C377.178,55.864 377.638,60.68 376.342,65.334 C375.088,70 372.068,73.984 368.636,76.648 C365.184,79.356 361.362,80.986 357.612,82.17 L358.208,81.84 C354.926,83.5 351.55,85.59 348.438,87.824 C345.32,90.1 342.412,92.662 339.824,95.504 C337.246,98.35 334.94,101.442 333.12,104.756 C331.316,108.072 329.98,111.6 329.412,115.094 L329.54,114.386 C329.566,116.704 329.418,118.7 329.128,120.862 C328.816,122.984 328.406,125.14 327.656,127.256 C326.252,131.47 323.728,135.878 319.398,139.006 C317.266,140.556 314.758,141.708 312.192,142.33 C309.622,142.954 307.036,143.098 304.59,142.922 C299.698,142.534 295.326,141.096 291.39,139.256 L299.892,130.696 C299.508,130.034 299.562,129.906 298.47,128.806 C298.234,128.596 297.86,128.252 296.986,127.802 C296.512,127.526 294.956,126.992 293.404,127.212 C292.034,127.378 290.75,128.016 289.8,128.926 C289.366,129.342 288.998,129.81 288.7,130.324 C288.352,130.956 288.434,130.84 288.296,131.146 C288.212,131.354 288.142,131.566 288.08,131.778 C288.024,131.984 287.986,132.144 287.952,132.332 C287.892,132.672 287.892,132.718 287.872,132.926 C287.84,133.35 287.854,133.402 287.852,133.496 C287.856,133.62 287.854,133.58 287.848,133.552 L287.788,133.132 L287.598,131.97 L287.164,129.428 L286.24,124.192 C285.604,120.678 285.06,117.126 284.488,113.574 C283.942,110.016 283.406,106.452 282.936,102.87 C282.51,99.28 281.96,95.712 281.616,92.098 L288.176,87.826 C287.818,87.58 287.812,87.6 287.652,87.514 C287.53,87.456 287.412,87.406 287.286,87.362 C287.036,87.274 286.76,87.206 286.45,87.172 C285.838,87.094 285.05,87.212 284.462,87.5 C283.24,88.136 283.008,88.804 282.87,89.066 C282.66,89.646 282.806,89.592 282.848,89.542 C282.994,89.376 283.1,88.894 283.218,88.42 C283.45,87.43 283.586,86.276 283.694,85.12 C283.99,82.778 284.118,80.346 284.49,77.844 L285.656,77.594 C287.024,79.748 288.074,81.99 289.048,84.358 C289.486,85.56 289.904,86.774 290.228,88.164 C290.384,88.878 290.496,89.59 290.48,90.606 C290.438,91.142 290.468,91.682 289.988,92.794 C289.712,93.316 289.294,94.24 287.796,94.998 C287.072,95.348 286.13,95.488 285.372,95.388 C284.988,95.344 284.64,95.258 284.322,95.144 C284.16,95.088 284.008,95.024 283.852,94.948 C283.66,94.844 283.62,94.846 283.232,94.58 L289.792,90.306 C290.992,93.74 291.98,97.22 293.076,100.682 C294.126,104.152 295.102,107.642 296.04,111.144 C296.952,114.652 297.874,118.162 298.644,121.726 C299.05,123.504 299.436,125.292 299.766,127.116 L300.266,129.902 C300.35,130.382 300.41,130.874 300.48,131.416 L300.578,132.338 L300.622,133.068 C300.626,133.276 300.64,133.44 300.602,133.976 C300.578,134.212 300.574,134.286 300.51,134.656 C300.472,134.858 300.434,135.03 300.37,135.25 C300.308,135.47 300.234,135.688 300.148,135.902 C300.01,136.212 300.09,136.106 299.738,136.744 C299.436,137.264 299.064,137.738 298.626,138.158 C297.67,139.072 296.38,139.716 295.002,139.882 C293.442,140.1 291.88,139.568 291.4,139.286 C290.52,138.834 290.14,138.486 289.9,138.272 C288.788,137.152 288.826,137 288.428,136.314 C286.696,133.332 287.71,129.512 290.692,127.782 C292.562,126.696 294.762,126.69 296.568,127.572 L296.93,127.752 C299.98,129.268 303.03,130.488 305.872,130.976 C308.728,131.458 311.17,131.19 313.336,129.964 C315.512,128.752 317.532,126.454 319.198,123.582 C320.836,120.754 322.23,117.224 322.976,113.95 L323.104,113.24 C324.764,109.204 327.02,105.67 329.452,102.396 C331.878,99.114 334.482,96.058 337.172,93.096 C339.856,90.132 342.592,87.23 345.362,84.326 C346.742,82.87 348.126,81.4 349.568,79.986 C351.008,78.534 352.396,77.14 354.02,75.702 L354.616,75.37 C357.528,73.622 360.094,71.552 362.082,69.39 C364.06,67.198 365.362,64.938 365.974,62.522 C366.616,60.116 366.602,57.39 365.924,54.51 C365.592,53.076 365.096,51.628 364.516,50.186 C364.216,49.468 363.89,48.756 363.534,48.062 C363.206,47.402 362.764,46.6 362.504,46.154 L363.794,47.302 C361.834,45.942 361.036,44.714 360.186,43.512 C359.39,42.312 358.736,41.156 358.164,39.982 C357.012,37.648 356.098,35.322 355.288,32.974 C354.468,30.632 353.83,28.246 353.21,25.87 C352.638,23.474 352.13,21.076 351.81,18.61 L352.924,18.182" fill="#1A1919"/>
    <path d="M286.004,45.382 C286.004,45.382 276.396,84.552 284.15,93.422 C284.15,93.422 288.8,108.984 305.392,137.736 C305.392,137.736 324.046,192.688 265.438,191.578" fill="#EFA77C"/>
    <path d="M286.586,45.524 C286.768,49.74 286.67,53.854 286.614,57.936 L286.314,70.006 C286.254,73.966 286.196,77.888 286.434,81.586 C286.542,83.426 286.756,85.212 287.05,86.774 C287.312,88.324 287.812,89.672 287.998,90.058 L289.158,92.458 L289.048,91.958 L290.288,97.618 C290.698,99.594 291.154,101.584 291.632,103.574 C292.594,107.556 293.784,111.502 295.446,115.228 C297.082,118.964 299.086,122.53 301.326,125.954 C303.602,129.362 306.108,132.63 308.686,135.836 L308.656,135.798 L308.994,136.514 C310.662,140.056 311.824,143.412 312.672,147.064 C313.472,150.682 313.888,154.416 313.98,158.24 C314.066,162.062 313.732,165.998 312.748,169.92 C311.722,173.814 310.03,177.71 307.492,181.076 C305.006,184.468 301.752,187.29 298.234,189.344 C294.698,191.394 290.922,192.72 287.17,193.44 C279.638,194.806 272.288,194.252 265.426,192.174 L265.45,190.98 C272.276,189.138 278.792,187.448 284.368,184.664 C289.97,181.956 294.342,178.34 297.134,173.84 C299.942,169.37 301.712,163.91 302.38,157.822 C302.716,154.79 302.698,151.652 302.552,148.478 C302.434,145.342 302.192,141.96 301.792,138.96 L302.1,139.636 C300.578,135.738 299.082,131.844 297.474,128.026 C295.83,124.226 294.068,120.502 292.088,116.878 C290.132,113.242 287.846,109.754 285.548,106.208 C284.398,104.438 283.278,102.638 282.188,100.798 C281.112,98.904 280.156,97.142 279.252,94.886 L280.3,96.786 C277.826,94.022 277.084,91.32 276.522,88.902 C276.012,86.452 275.896,84.152 275.878,81.91 C275.882,77.434 276.394,73.184 277.202,69.022 C278.004,64.864 279.088,60.806 280.436,56.836 C281.822,52.874 283.35,48.976 285.424,45.242 L286.586,45.524" fill="#1A1919"/>
    <path d="M288.614,405.516 C286.206,408.25 283.846,410.524 281.33,412.838 C278.832,415.114 276.252,417.282 273.598,419.344 C268.288,423.464 262.676,427.168 256.79,430.336 C245.054,436.68 232.09,440.838 218.986,441.526 C231.928,439.34 243.95,433.846 254.452,426.52 C259.716,422.856 264.634,418.732 269.192,414.278 C271.47,412.048 273.658,409.736 275.742,407.35 C277.794,404.99 279.866,402.444 281.52,400.054 L288.614,405.516" fill="#1A1919"/>
    <path d="M225.772,168.754 C221.514,171.626 218,175.422 214.796,179.308 C211.64,183.268 208.81,187.452 206.296,191.838 C203.76,196.204 201.494,200.732 199.396,205.354 C197.336,209.992 195.384,214.692 193.422,219.426 C189.51,228.884 185.56,238.61 183.33,248.794 C182.766,251.334 182.266,253.89 181.886,256.466 C181.524,259.178 180.916,261.614 180.59,264.238 C179.772,269.392 179.28,274.602 178.834,279.81 L177.672,295.428 L176.404,310.98 C175.602,321.34 175.118,331.692 174.542,342.004 C173.952,352.32 173.518,362.62 173.574,372.918 C173.658,383.222 174.196,393.49 176.256,403.772 L175.416,404.08 C172.878,399.39 171.068,394.302 169.666,389.144 C168.246,383.982 167.264,378.714 166.542,373.43 C165.096,362.852 164.722,352.194 164.99,341.606 C165.294,331.012 166.52,320.498 167.994,310.06 C168.734,304.838 169.538,299.63 170.554,294.46 C171.536,289.284 172.792,284.156 173.996,279.032 C175.21,273.908 176.496,268.808 177.602,263.678 C177.896,262.398 178.192,261.12 178.45,259.834 L178.862,257.902 C178.972,257.39 179.084,256.644 179.196,256.028 L180.494,248.248 C182.21,237.888 183.4,227.274 186.372,216.966 C187.858,211.824 189.802,206.798 192.19,201.966 C194.542,197.12 197.282,192.434 200.454,188.032 C203.65,183.654 207.236,179.508 211.388,175.978 C215.528,172.478 220.13,169.33 225.454,167.918 L225.772,168.754" fill="#1A1919"/>
    <path d="M188.61,276.816 C189.28,279.946 189.702,283.048 190.024,286.142 C190.39,289.238 190.6,292.322 190.756,295.4 C190.91,298.478 190.998,301.55 191.002,304.622 C191.046,307.694 190.938,310.76 190.622,313.828 C189.994,319.96 188.586,326.12 188.44,332.288 C188.244,338.454 188.946,344.604 190.112,350.694 C190.65,353.742 191.33,356.772 191.828,359.804 C192.36,362.834 192.776,365.866 193.234,368.888 C194.146,374.936 195.232,380.926 196.024,386.934 C197.54,399.004 198.962,410.852 201.128,423.212 L200.308,423.572 C196.416,418.474 193.712,412.618 191.492,406.684 C189.296,400.726 187.712,394.588 186.578,388.406 C185.47,382.212 185.08,375.94 184.812,369.698 C184.682,366.574 184.58,363.454 184.662,360.328 C184.712,357.204 185.006,354.072 185.216,350.956 C185.726,344.714 185.998,338.526 185.552,332.346 C185.16,326.17 183.688,319.984 183.156,313.77 C182.888,310.664 182.87,307.558 183.04,304.458 C183.174,301.356 183.428,298.258 183.788,295.166 C184.154,292.076 184.608,288.99 185.264,285.918 C185.882,282.846 186.63,279.784 187.718,276.754 L188.61,276.816" fill="#1A1919"/>
    <path d="M242.804,487.28 C246.238,488.082 249.45,489.452 252.552,491.034 C255.672,492.594 258.622,494.456 261.502,496.42 C264.36,498.414 267.08,500.59 269.738,502.842 C272.362,505.132 274.878,507.54 277.284,510.05 L277.478,510.254 L277.788,510.76 C282.554,518.59 287.944,526.358 292.862,534.32 C297.85,542.268 302.792,550.364 308.62,557.8 C314.446,565.228 321.068,572.012 328.176,578.202 C335.308,584.38 342.94,589.912 350.532,595.338 C365.636,606.35 381.902,615.336 398.772,622.732 C407.228,626.41 415.95,629.504 424.916,631.942 C433.886,634.382 443.088,636.148 452.534,637.446 L452.534,638.34 C433.48,640.878 413.654,637.884 395.394,631.218 C377.014,624.588 360.59,613.624 345.874,601.284 C338.546,595.018 331.952,587.988 325.504,580.946 C319.04,573.908 312.734,566.802 306.26,559.812 C299.788,552.83 293.046,545.978 286.992,538.526 C280.904,531.064 275.776,523.032 271.176,514.38 L271.68,515.09 C269.548,512.558 267.36,510.078 265.098,507.662 C262.872,505.206 260.524,502.87 258.12,500.586 C255.734,498.278 253.22,496.108 250.646,493.982 C248.044,491.912 245.37,489.84 242.5,488.12 L242.804,487.28" fill="#1A1919"/>
    <path d="M310.012,44.462 C302.626,65.702 283.79,83.856 283.79,83.856 C283.79,83.856 291.538,73.992 309.084,74.93" fill="#EFA77C"/>
    <path d="M310.274,44.556 C308.11,52.262 304.54,59.59 300.288,66.418 C298.148,69.834 295.85,73.148 293.41,76.366 C290.948,79.59 288.466,82.698 285.676,85.814 L281.65,82.176 C282.638,80.906 283.466,80.102 284.49,79.238 C285.47,78.396 286.538,77.682 287.628,77.026 C289.836,75.75 292.228,74.878 294.638,74.256 C297.072,73.694 299.538,73.42 301.974,73.494 C304.41,73.574 306.81,73.924 309.1,74.654 L309.068,75.208 C306.746,75.694 304.512,76.166 302.358,76.776 C300.206,77.366 298.136,78.084 296.174,78.938 C294.204,79.774 292.35,80.792 290.614,81.924 C289.73,82.468 288.904,83.084 288.086,83.69 C287.318,84.282 286.426,85.036 285.928,85.536 L281.902,81.898 C284.758,79.42 287.562,76.58 290.174,73.69 C292.8,70.782 295.31,67.76 297.672,64.626 C302.386,58.35 306.65,51.682 309.75,44.37 L310.274,44.556" fill="#1A1919"/>
    <path d="M359.786,364.942 C359.786,364.942 444.506,323.276 529.222,408.098 C529.222,408.098 467.096,358.988 359.786,364.942" fill="#FFFFFE"/>
    <path d="M233.564,281.404 C233.564,281.404 291.032,342.79 274.052,400.26 C274.052,400.26 264.912,336.262 233.564,281.404" fill="#FFFFFE"/>
    <path d="M263.604,482.548 C263.604,482.548 302.262,531.13 313.236,553.08 C327.604,581.814 412.502,637.978 463.442,626.224 C463.442,626.224 358.952,592.262 330.216,546.548 C330.216,546.548 288.422,494.304 263.604,482.548" fill="#FFFFFE"/>
    <path d="M275.36,101.158 C275.36,101.158 309.318,167.772 263.604,186.056 C263.604,186.056 331.526,171.69 275.36,101.158" fill="#FFFFFE"/>
  </g>
</svg>
